<?xml version="1.0" encoding="UTF-8"?>
<!DOCTYPE svg PUBLIC "-//W3C//DTD SVG 1.1//EN" "http://www.w3.org/Graphics/SVG/1.1/DTD/svg11.dtd">
<!-- Creator: CorelDRAW -->
<svg xmlns="http://www.w3.org/2000/svg" xml:space="preserve" width="7.7441mm" height="7.7539mm" version="1.1" style="shape-rendering:geometricPrecision; text-rendering:geometricPrecision; image-rendering:optimizeQuality; fill-rule:evenodd; clip-rule:evenodd"
viewBox="0 0 79.1 79.2"
 xmlns:xlink="http://www.w3.org/1999/xlink"
 xmlns:xodm="http://www.corel.com/coreldraw/odm/2003">
 <defs>
  <style type="text/css">
   <![CDATA[
    .fil0 {fill:#FEFEFE}
    .fil1 {fill:#2BA2DB}
    .fil4 {fill:#A8C6DF}
    .fil3 {fill:#CBE0EE}
    .fil2 {fill:white}
   ]]>
  </style>
 </defs>
 <g id="Слой_x0020_1">
  <metadata id="CorelCorpID_0Corel-Layer"/>
  <g id="_3124313421440">
   <g>
    <path class="fil0" d="M-0 39.53c0,-2.94 0.35,-5.84 0.98,-8.71 1.35,-6.19 4.06,-11.36 7.96,-16.32 0.12,-0.16 0.25,-0.3 0.24,-0.27 0.12,-0.18 0.25,-0.34 0.4,-0.5l0.08 -0.09 4.38 -4.31 0.15 -0.12c1.78,-1.44 3.28,-2.52 5.24,-3.71 8.82,-5.34 20.02,-6.83 29.98,-4.27 3.18,0.82 5.62,1.85 8.54,3.3 1.56,0.78 3,1.73 4.44,2.71 1.29,0.87 3,2.25 4.12,3.33 1.42,1.37 2.67,2.73 3.92,4.25 3.61,4.4 6.15,9.72 7.53,15.23 1.57,6.24 1.5,13.05 -0.06,19.29 -1.16,4.62 -3.42,9.63 -6.28,13.45 -0.81,1.09 -1.71,2.08 -2.54,3.15 -0.27,0.35 -0.54,0.61 -0.85,0.92 -2.71,2.71 -4.78,4.41 -8.01,6.5l-0.09 0.06 -1.55 0.88 -0.07 0.04c-4.94,2.55 -9.33,4.07 -14.9,4.61 -1.4,0.14 -3.73,0.37 -5.07,0.19 -0.64,-0.08 -1.36,-0.04 -2.03,-0.11 -0.35,-0.04 -0.7,-0.04 -1.04,-0.08 -6.86,-0.66 -13.04,-3.11 -18.7,-7.01 -1.57,-1.08 -3.48,-2.62 -4.81,-3.97 -0.18,-0.18 -0.35,-0.35 -0.53,-0.53l-0.1 -0.1 -3.27 -3.8 -0.08 -0.1c-1.66,-2.22 -3.54,-5.21 -4.59,-7.77 -0.47,-1.15 -0.94,-2.24 -1.33,-3.42 -1.37,-4.13 -2.07,-8.35 -2.07,-12.7z"/>
   </g>
   <g>
    <path class="fil1" d="M3.78 39.53c0,4.11 0.67,7.89 1.88,11.51 0.44,1.32 0.75,1.96 1.25,3.19 0.85,2.09 2.77,5.15 4.11,6.94l3.09 3.6c0.2,0.2 0.35,0.34 0.54,0.55 0.94,0.95 3.15,2.74 4.27,3.51 5.12,3.53 10.67,5.75 16.91,6.36 0.32,0.03 0.71,0.04 1.08,0.08 0.61,0.07 1.55,0.04 2.13,0.12 0.61,0.08 3.47,-0.13 4.19,-0.21 5.2,-0.5 9.05,-1.89 13.54,-4.21l1.39 -0.79c3.44,-2.23 4.51,-3.12 7.39,-6 0.2,-0.2 0.35,-0.33 0.53,-0.56 0.79,-1.02 1.51,-1.77 2.5,-3.1 2.57,-3.43 4.62,-8.04 5.64,-12.1 1.4,-5.62 1.48,-11.81 0.06,-17.45 -1.25,-4.97 -3.54,-9.8 -6.79,-13.76 -1.29,-1.57 -2.15,-2.52 -3.62,-3.93 -0.66,-0.64 -2.93,-2.46 -3.62,-2.92 -1.26,-0.85 -2.61,-1.76 -4.01,-2.45 -2.82,-1.41 -4.66,-2.22 -7.79,-3.03 -9,-2.31 -19.15,-0.96 -27.09,3.84 -2.29,1.39 -2.96,1.91 -4.83,3.42l-4.16 4.09c-0.13,0.14 -0.12,0.16 -0.24,0.31 -0.11,0.13 -0.14,0.15 -0.25,0.29 -3.52,4.48 -6,9.11 -7.24,14.79 -0.52,2.4 -0.89,5.03 -0.89,7.9z"/>
    <path class="fil2" d="M27.48 43.76c0.43,-0.05 1.2,-0.62 1.55,-0.85l18.3 -11.66c0.5,-0.33 0.93,-0.61 1.42,-0.91 0.5,-0.31 0.91,-0.76 1.61,-0.57 0.18,0.57 -0.03,0.85 -0.71,1.38l-5.67 5.08c-0.25,0.24 -0.31,0.32 -0.57,0.52l-1.69 1.5c-0.23,0.2 -0.31,0.34 -0.56,0.53l-6.75 6.09c-0.24,0.21 -0.36,0.26 -0.59,0.5 -0.33,0.35 -1,0.63 -0.85,1.1 0.94,0.7 1.86,1.41 2.81,2.15 0.49,0.38 0.94,0.72 1.41,1.08 0.32,0.25 1.12,0.78 1.34,1.07 0.41,0.2 4.28,3.22 4.71,3.55 0.59,0.46 4.1,3.25 4.74,3.51 1.08,0.44 2.18,0.06 2.82,-1.01 0.55,-0.93 4.82,-22.47 5.11,-23.92 0.46,-2.29 0.92,-4.62 1.29,-6.96 0.18,-1.17 0.53,-2.66 -0.89,-2.83 -0.81,-0.1 -2.56,0.63 -3.3,0.89 -4.06,1.44 -8,2.96 -12.05,4.46 -6.17,2.28 -11.71,4.59 -17.73,7.1 -1.03,0.43 -5.17,2.1 -5.72,2.6 -1.08,0.98 -0.37,1.96 0.66,2.47 1.12,0.55 7.46,2.39 9.31,3.13z"/>
    <path class="fil3" d="M27.48 43.76c0.29,0.66 2.48,7.99 2.92,9.39 0.31,0.99 0.58,2.32 1.23,2.88 0.16,-0.2 0.3,-2.06 0.34,-2.39l0.8 -6.73c0.06,-0.49 0.09,-0.4 0.2,-0.45 -0.15,-0.47 0.52,-0.75 0.85,-1.1 0.23,-0.24 0.35,-0.3 0.59,-0.5l6.75 -6.09c0.25,-0.19 0.33,-0.33 0.56,-0.53l1.69 -1.5c0.26,-0.2 0.32,-0.28 0.57,-0.52l5.67 -5.08c0.68,-0.53 0.9,-0.81 0.71,-1.38 -0.7,-0.19 -1.11,0.26 -1.61,0.57 -0.49,0.3 -0.93,0.59 -1.42,0.91l-18.3 11.66c-0.35,0.23 -1.12,0.81 -1.55,0.85z"/>
    <path class="fil4" d="M31.63 56.03c0.77,0.58 1.58,-0.34 1.97,-0.69 0.31,-0.29 0.16,-0.25 0.78,-0.77 0.63,-0.53 0.4,-0.38 0.83,-0.81 0.26,-0.26 0.56,-0.47 0.84,-0.72 0.59,-0.53 2.01,-2.11 2.49,-2.28 -0.22,-0.28 -1.02,-0.82 -1.34,-1.07 -0.47,-0.37 -0.92,-0.7 -1.41,-1.08 -0.95,-0.74 -1.87,-1.45 -2.81,-2.15 -0.11,0.05 -0.14,-0.04 -0.2,0.45l-0.8 6.73c-0.04,0.33 -0.18,2.19 -0.34,2.39z"/>
   </g>
  </g>
 </g>
</svg>
