<?xml version="1.0" encoding="UTF-8"?>
<!DOCTYPE svg PUBLIC "-//W3C//DTD SVG 1.1//EN" "http://www.w3.org/Graphics/SVG/1.1/DTD/svg11.dtd">
<!-- Creator: CorelDRAW -->
<svg xmlns="http://www.w3.org/2000/svg" xml:space="preserve" width="7.3753mm" height="7.9991mm" version="1.1" style="shape-rendering:geometricPrecision; text-rendering:geometricPrecision; image-rendering:optimizeQuality; fill-rule:evenodd; clip-rule:evenodd"
viewBox="0 0 105.25 114.15"
 xmlns:xlink="http://www.w3.org/1999/xlink"
 xmlns:xodm="http://www.corel.com/coreldraw/odm/2003">
 <defs>
  <style type="text/css">
   <![CDATA[
    .fil0 {fill:#FEFEFE}
    .fil1 {fill:#644C98;fill-rule:nonzero}
   ]]>
  </style>
 </defs>
 <g id="Слой_x0020_1">
  <metadata id="CorelCorpID_0Corel-Layer"/>
  <g id="_3124325096416">
   <path class="fil0" d="M55.03 0.1c7.32,0.06 14.66,0.83 21.75,2.71 4.11,1.09 8.11,2.56 11.84,4.61 2.37,1.31 4.55,2.95 6.39,4.94 2.58,2.8 4.54,6.1 5.99,9.61 2.74,6.64 3.83,13.77 4.16,20.91 0.31,6.84 -0.11,13.7 -1.04,20.49 -0.85,6.27 -2.94,12.41 -6.7,17.55 -3.18,4.35 -7.55,7.76 -12.49,9.9 -2.46,1.06 -5.03,1.81 -7.64,2.39 -6.07,1.65 -12.33,2.47 -18.6,2.89 -3.43,0.23 -6.87,0.28 -10.31,0.17 -3.9,4.59 -7.81,9.18 -11.89,13.62l-0.2 0.21c-1.01,1.01 -1.65,1.81 -2.88,2.64l-0.24 0.15c-3.36,2.06 -7.76,1.63 -10.31,-1.55l-0.11 -0.14 -0.1 -0.14c-1.27,-1.77 -1.57,-3.48 -1.61,-5.57l-0 -0.17c0.03,-4.62 0.05,-9.25 0.08,-13.87 -4.15,-1.77 -7.96,-4.31 -11.07,-7.62 -4.59,-4.9 -7.36,-11.16 -8.72,-17.68 -1.32,-6.29 -1.4,-12.67 -1.28,-19.07 0.11,-5.62 0.4,-11.22 1.61,-16.72 1.38,-6.28 3.96,-12.34 8.13,-17.04 1.84,-2.2 4.08,-3.94 6.51,-5.45 5.07,-3.14 10.75,-5 16.57,-6.17 7.28,-1.47 14.75,-1.92 22.17,-1.59z"/>
   <path class="fil1" d="M33.55 6.57c7.03,-1.4 14.23,-1.84 21.38,-1.51 7.04,0.05 14.1,0.78 20.91,2.57 3.69,0.99 7.33,2.28 10.68,4.14 1.8,0.98 3.47,2.22 4.86,3.74 2.12,2.28 3.68,5.02 4.88,7.89 2.51,6.11 3.47,12.73 3.78,19.3 0.29,6.66 -0.15,13.34 -1.02,19.95 -0.75,5.32 -2.45,10.63 -5.66,15 -2.55,3.51 -6.1,6.26 -10.08,7.97 -2.19,0.96 -4.5,1.59 -6.82,2.11 -5.88,1.61 -11.96,2.38 -18.04,2.8 -4.42,0.28 -8.86,0.29 -13.28,0 -4.72,5.55 -9.41,11.13 -14.34,16.5 -0.64,0.64 -1.19,1.37 -1.95,1.88 -0.48,0.29 -1.22,0.48 -1.62,-0.02 -0.38,-0.53 -0.35,-1.23 -0.36,-1.85 0.04,-6.44 0.07,-12.88 0.11,-19.31 -5.01,-1.36 -9.8,-3.88 -13.36,-7.71 -3.88,-4.11 -6.16,-9.49 -7.29,-14.97 -1.26,-5.97 -1.33,-12.1 -1.18,-18.17 0.07,-5.34 0.35,-10.72 1.51,-15.96 1.16,-5.32 3.31,-10.56 6.96,-14.67 1.41,-1.69 3.2,-3.03 5.06,-4.19 4.53,-2.8 9.68,-4.41 14.86,-5.48zm17.43 12.72c-0.7,0.3 -1.07,1.2 -0.75,1.9 0.22,0.61 0.87,0.95 1.49,0.94 2.52,0.02 5.04,0.32 7.47,0.98 5.68,1.53 10.78,5.15 14.08,10.03 3.13,4.63 4.33,10.29 4.38,15.81 -0.09,0.82 0.55,1.65 1.39,1.68 0.85,0.09 1.67,-0.66 1.61,-1.52 -0.03,-4.53 -0.75,-9.1 -2.54,-13.28 -2.03,-4.86 -5.62,-8.99 -9.99,-11.9 -4.84,-3.26 -10.72,-4.79 -16.53,-4.78 -0.22,-0 -0.42,0.04 -0.61,0.14zm-19.16 3.18c-1.37,0.31 -2.5,1.18 -3.62,1.98 -1.66,1.3 -3.29,2.75 -4.33,4.63 -0.74,1.32 -1.12,2.89 -0.78,4.39 0.88,2.98 2.21,5.79 3.62,8.55 1.59,3.05 3.23,6.07 5.13,8.94 3.1,4.75 6.82,9.11 11.14,12.8 4.46,3.82 9.49,6.91 14.71,9.58 2.91,1.5 5.87,2.96 8.99,3.96 1.13,0.47 2.41,0.5 3.58,0.18 1.48,-0.4 2.8,-1.26 3.91,-2.29 1.49,-1.41 2.82,-2.99 3.85,-4.77 0.59,-1.04 0.9,-2.3 0.54,-3.46 -0.24,-0.82 -0.8,-1.51 -1.46,-2.03 -1.23,-1.01 -2.47,-2.01 -3.73,-2.99 -1.51,-1.18 -3.14,-2.2 -4.78,-3.2 -0.85,-0.49 -1.68,-1.06 -2.66,-1.26 -1.53,-0.35 -3.31,0.08 -4.34,1.33 -0.67,0.83 -1.33,1.66 -1.99,2.49 -0.74,0.97 -2.06,1.35 -3.23,1.2 -3.33,-0.84 -6.46,-2.43 -9.12,-4.59 -4.03,-3.29 -7.02,-7.79 -8.74,-12.68 -0.59,-1.35 -0.11,-3.09 1.09,-3.95 0.86,-0.68 1.73,-1.34 2.57,-2.04 1.44,-1.31 1.64,-3.61 0.78,-5.29 -0.77,-1.43 -1.66,-2.79 -2.56,-4.15 -1.11,-1.67 -2.41,-3.21 -3.68,-4.76 -0.65,-0.74 -1.19,-1.6 -2.05,-2.12 -0.84,-0.52 -1.89,-0.66 -2.84,-0.43zm21.72 4c-0.57,0.21 -0.98,0.79 -0.95,1.39 -0.02,0.75 0.63,1.42 1.37,1.46 2.83,0.22 5.67,0.83 8.19,2.17 2.81,1.49 5.1,3.9 6.51,6.75 1.22,2.47 1.67,5.25 1.63,7.99 -0.07,0.84 0.72,1.6 1.55,1.54 0.74,-0.01 1.42,-0.64 1.44,-1.38 0.07,-2.41 -0.22,-4.85 -0.98,-7.15 -1.46,-4.46 -4.71,-8.31 -8.89,-10.44 -2.82,-1.46 -5.97,-2.19 -9.13,-2.43 -0.25,-0.02 -0.51,-0 -0.74,0.1zm2.07 7.49c-0.75,0.3 -1.12,1.25 -0.76,1.97 0.25,0.59 0.89,0.89 1.51,0.89 1.78,0.11 3.67,0.61 4.92,1.96 1.28,1.36 1.7,3.27 1.81,5.08 -0.02,0.74 0.55,1.44 1.29,1.52 0.89,0.16 1.81,-0.62 1.72,-1.54 -0.1,-2.55 -0.82,-5.21 -2.62,-7.1 -1.58,-1.7 -3.87,-2.56 -6.14,-2.81 -0.57,-0.04 -1.17,-0.19 -1.71,0.04z"/>
  </g>
 </g>
</svg>
