<?xml version="1.0" encoding="UTF-8"?>
<!DOCTYPE svg PUBLIC "-//W3C//DTD SVG 1.1//EN" "http://www.w3.org/Graphics/SVG/1.1/DTD/svg11.dtd">
<!-- Creator: CorelDRAW -->
<svg xmlns="http://www.w3.org/2000/svg" xml:space="preserve" width="7.6079mm" height="7.6081mm" version="1.1" style="shape-rendering:geometricPrecision; text-rendering:geometricPrecision; image-rendering:optimizeQuality; fill-rule:evenodd; clip-rule:evenodd"
viewBox="0 0 193.84 193.84"
 xmlns:xlink="http://www.w3.org/1999/xlink"
 xmlns:xodm="http://www.corel.com/coreldraw/odm/2003">
 <defs>
  <style type="text/css">
   <![CDATA[
    .fil0 {fill:#FEFEFE}
    .fil1 {fill:url(#id0)}
   ]]>
  </style>
  <linearGradient id="id0" gradientUnits="userSpaceOnUse" x1="9.18" y1="96.92" x2="184.66" y2="96.92">
   <stop offset="0" style="stop-opacity:1; stop-color:#2DA83E"/>
   <stop offset="1" style="stop-opacity:1; stop-color:#63B55E"/>
  </linearGradient>
 </defs>
 <g id="Слой_x0020_1">
  <metadata id="CorelCorpID_0Corel-Layer"/>
  <g id="_3124325049216">
   <path class="fil0" d="M47.64 180.39l-44.88 11.77 12.01 -43.81c-9.68,-15.43 -14.76,-33.24 -14.76,-51.47 0.02,-53.44 43.51,-96.88 96.95,-96.88 25.87,0 50.24,10.11 68.52,28.42 18.28,18.3 28.37,42.67 28.36,68.54 -0.02,53.42 -43.49,96.89 -96.91,96.88 -17.33,-0 -34.37,-4.63 -49.28,-13.45z"/>
   <path class="fil1" d="M77.78 75.64c-0.94,1.87 -1.4,3.04 -2.8,4.68 -1.4,1.64 -2.95,3.65 -4.21,4.91 -1.41,1.4 -2.87,2.92 -1.23,5.72 1.64,2.81 7.27,11.99 15.6,19.42 10.71,9.55 19.74,12.51 22.55,13.91 2.81,1.4 4.44,1.17 6.08,-0.71 1.64,-1.87 7,-8.18 8.87,-10.99 1.87,-2.81 3.74,-2.34 6.31,-1.41 2.57,0.94 16.35,7.72 19.16,9.12 2.81,1.4 4.68,2.1 5.38,3.27 0.7,1.17 0.7,6.78 -1.64,13.33 -2.34,6.55 -13.78,12.86 -18.93,13.33 -5.14,0.47 -9.96,2.33 -33.64,-7.01 -28.49,-11.24 -46.49,-40.45 -47.89,-42.32 -1.4,-1.87 -11.45,-15.2 -11.45,-28.99 0,-13.8 7.24,-20.58 9.81,-23.38 2.57,-2.81 5.61,-3.51 7.48,-3.51 1.87,0 3.74,-0 5.37,0.07 2,0.08 4.21,0.17 6.31,4.84 2.49,5.54 7.94,19.41 8.65,20.81 0.7,1.4 1.17,3.04 0.23,4.91zm19.17 -66.46c-48.39,0 -87.75,39.34 -87.76,87.7 -0.01,16.57 4.63,32.71 13.41,46.67l2.09 3.32 -8.87 32.36 33.21 -8.71 3.21 1.9c13.47,7.99 28.91,12.22 44.69,12.23 48.36,0 87.71,-39.35 87.73,-87.71 0.01,-23.43 -9.11,-45.47 -25.67,-62.05 -16.57,-16.58 -38.59,-25.71 -62.03,-25.72z"/>
  </g>
 </g>
</svg>
